HIERARCHY
ROOT SpineBase
{
  OFFSET 0.000000 0.000000 0.000000
  CHANNELS 6 Xposition Yposition Zposition Zrotation Xrotation Yrotation
  JOINT SpineMid
  {
    OFFSET -0.000000 31.498395 0.000000
    CHANNELS 3 Zrotation Xrotation Yrotation
    JOINT SpineShoulder
    {
      OFFSET -0.067301 23.495305 -0.669677
      CHANNELS 3 Zrotation Xrotation Yrotation
      JOINT Neck
      {
        OFFSET -0.116587 7.794447 -0.562966
        CHANNELS 3 Zrotation Xrotation Yrotation
        JOINT Head
        {
          OFFSET -1.063843 12.502833 1.436343
          CHANNELS 3 Zrotation Xrotation Yrotation
          End Site
          {
            OFFSET 0 0 0
          }
        }
      }
      JOINT ShoulderLeft
      {
        OFFSET -12.012980 -7.468901 -9.080886
        CHANNELS 3 Zrotation Xrotation Yrotation
        JOINT ElbowLeft
        {
          OFFSET -3.767432 -25.346917 -3.556448
          CHANNELS 3 Zrotation Xrotation Yrotation
          JOINT WristLeft
          {
            OFFSET -7.640483 -25.641851 3.233045
            CHANNELS 3 Zrotation Xrotation Yrotation
            JOINT HandLeft
            {
              OFFSET -0.753740 -8.637458 0.280574
              CHANNELS 3 Zrotation Xrotation Yrotation
              JOINT HandTipLeft
              {
                OFFSET -0.222033 -5.257679 -1.161964
                CHANNELS 3 Zrotation Xrotation Yrotation
                End Site
                {
                  OFFSET 0 0 0
                }
              }
              JOINT ThumbLeft
              {
                OFFSET 1.022918 -3.256055 -3.602007
                CHANNELS 3 Zrotation Xrotation Yrotation
                End Site
                {
                  OFFSET 0 0 0
                }
              }
            }
          }
        }
      }
      JOINT ShoulderRight
      {
        OFFSET 10.547625 -4.732521 -3.097636
        CHANNELS 3 Zrotation Xrotation Yrotation
        JOINT ElbowRight
        {
          OFFSET -17.892010 -20.265324 -6.857790
          CHANNELS 3 Zrotation Xrotation Yrotation
          JOINT WristRight
          {
            OFFSET -9.390700 -22.233353 0.426344
            CHANNELS 3 Zrotation Xrotation Yrotation
            JOINT HandRight
            {
              OFFSET -1.962934 -8.780163 1.232410
              CHANNELS 3 Zrotation Xrotation Yrotation
              JOINT HandTipRight
              {
                OFFSET -6.729229 -7.592671 -0.402217
                CHANNELS 3 Zrotation Xrotation Yrotation
                End Site
                {
                  OFFSET 0 0 0
                }
              }
              JOINT ThumbRight
              {
                OFFSET 7.158813 -2.266252 -0.998976
                CHANNELS 3 Zrotation Xrotation Yrotation
                End Site
                {
                  OFFSET 0 0 0
                }
              }
            }
          }
        }
      }
    }
  }
  JOINT HipLeft
  {
    OFFSET -6.810794 1.762835 -5.127348
    CHANNELS 3 Zrotation Xrotation Yrotation
    JOINT KneeLeft
    {
      OFFSET -0.063593 -45.624045 -0.460773
      CHANNELS 3 Zrotation Xrotation Yrotation
      JOINT AnkleLeft
      {
        OFFSET -2.105009 -30.301260 -1.289463
        CHANNELS 3 Zrotation Xrotation Yrotation
        JOINT FootLeft
        {
          OFFSET 6.828231 -4.219799 -1.063633
          CHANNELS 3 Zrotation Xrotation Yrotation
          End Site
          {
            OFFSET 0 0 0
          }
        }
      }
    }
  }
  JOINT HipRight
  {
    OFFSET 4.919991 0.855245 -1.133998
    CHANNELS 3 Zrotation Xrotation Yrotation
    JOINT KneeRight
    {
      OFFSET 10.816827 -47.302453 6.540021
      CHANNELS 3 Zrotation Xrotation Yrotation
      JOINT AnkleRight
      {
        OFFSET 1.665568 -29.948742 3.458932
        CHANNELS 3 Zrotation Xrotation Yrotation
        JOINT FootRight
        {
          OFFSET 7.476431 7.946255 -3.414327
          CHANNELS 3 Zrotation Xrotation Yrotation
          End Site
          {
            OFFSET 0 0 0
          }
        }
      }
    }
  }
}
MOTION
Frames: 10
Frame Time: 0.033333
73.835275 80.107548 239.069497 0.000000 0.000000 -18.799411 -0.000000 0.000000 18.799411 -0.000000 0.000000 0.000000 -0.000000 0.000000 0.000000 0.000000 0.000000 0.000000 -0.000000 0.000000 0.000000 -0.000000 0.000000 0.000000 -0.000000 0.000000 0.000000 -0.000000 0.000000 0.000000 0.000000 0.000000 0.000000 0.000000 0.000000 0.000000 -0.000000 0.000000 0.000000 -0.000000 0.000000 0.000000 -0.000000 0.000000 0.000000 -0.000000 0.000000 0.000000 0.000000 0.000000 0.000000 0.000000 0.000000 0.000000 -0.000000 0.000000 18.799411 -0.000000 0.000000 0.000000 -0.000000 0.000000 0.000000 0.000000 0.000000 0.000000 -0.000000 0.000000 18.799411 -0.000000 0.000000 0.000000 -0.000000 0.000000 0.000000 0.000000 0.000000 0.000000
73.873176 80.146945 239.056610 0.023993 -0.006115 -18.934667 -0.024679 -0.002001 18.934667 -0.000000 0.000000 0.000000 -0.000000 0.000000 0.000000 0.000000 0.000000 0.000000 -0.000000 0.000000 0.000000 -0.000000 0.000000 0.000000 0.275052 -1.162327 0.113144 -2.563346 -2.475464 0.528965 0.000000 0.000000 0.000000 0.000000 0.000000 0.000000 -1.296211 1.049513 -0.469946 1.304990 -1.038576 0.493647 -1.319303 -0.715689 -0.033310 6.503667 0.582020 -0.205378 0.000000 0.000000 0.000000 0.000000 0.000000 0.000000 -0.024679 -0.002001 18.934667 -0.000000 0.000000 0.000000 -7.084641 9.057932 18.364308 0.000000 0.000000 0.000000 -0.024679 -0.002001 18.934667 0.414223 0.848063 0.092000 9.222352 5.186913 -2.230693 0.000000 0.000000 0.000000
73.904452 80.177333 239.049785 0.043282 -0.018694 -19.054550 -0.047013 0.003539 19.054558 -0.000000 0.000000 0.000000 -0.000000 0.000000 0.000000 0.000000 0.000000 0.000000 -0.000000 0.000000 0.000000 -0.000000 0.000000 0.000000 0.294609 -2.428125 0.227627 -3.884432 -3.827774 0.808360 0.000000 0.000000 0.000000 0.000000 0.000000 0.000000 -2.254511 1.825533 -0.794822 2.928072 -2.626864 1.260859 -3.249381 -0.447676 -0.428587 12.467128 1.137383 -0.575141 0.000000 0.000000 0.000000 0.000000 0.000000 0.000000 -0.047013 0.003539 19.054558 -0.000000 0.000000 0.000000 -13.611799 14.468645 33.269766 0.000000 0.000000 0.000000 -0.047013 0.003539 19.054558 0.742207 1.525588 0.160879 18.969777 9.793335 -4.744740 0.000000 0.000000 0.000000
73.929102 80.198712 239.049022 0.057854 -0.037740 -19.158993 -0.067035 0.016663 19.159022 -0.000000 0.000000 0.000000 -0.000000 0.000000 0.000000 0.000000 0.000000 0.000000 -0.000000 0.000000 0.000000 -0.000000 0.000000 0.000000 0.010114 -3.738620 0.326677 -4.146394 -4.382609 0.923389 0.000000 0.000000 0.000000 0.000000 0.000000 0.000000 -2.880172 2.322110 -0.988459 3.738920 -3.362751 1.630021 -4.667679 -0.630476 -0.605295 17.464521 1.677766 -1.059621 0.000000 0.000000 0.000000 0.000000 0.000000 0.000000 -0.067035 0.016663 19.159022 -0.000000 0.000000 0.000000 -17.866971 17.503230 43.495468 0.000000 0.000000 0.000000 -0.067035 0.016663 19.159022 0.984665 2.032347 0.209629 27.796036 13.106472 -6.868552 0.000000 0.000000 0.000000
73.947126 80.211082 239.054321 0.067697 -0.063253 -19.247893 -0.084765 0.037401 19.247958 -0.000000 0.000000 0.000000 -0.000000 0.000000 0.000000 0.000000 0.000000 0.000000 -0.000000 0.000000 0.000000 -0.000000 0.000000 0.000000 -0.599438 -5.016899 0.391605 -3.457510 -4.388865 0.890111 0.000000 0.000000 0.000000 0.000000 0.000000 0.000000 -3.177117 2.536438 -1.060062 4.115658 -3.740327 1.809504 -5.942641 -0.762910 -0.767316 21.146711 2.223311 -1.596134 0.000000 0.000000 0.000000 0.000000 0.000000 0.000000 -0.084765 0.037401 19.247958 -0.000000 0.000000 0.000000 -19.889020 19.624390 50.003845 0.000000 0.000000 0.000000 -0.084765 0.037401 19.247958 1.142180 2.368452 0.240487 34.603730 14.987968 -7.914604 0.000000 0.000000 0.000000
73.958526 80.214442 239.065681 0.072806 -0.095227 -19.321114 -0.100212 0.065775 19.321232 -0.000000 0.000000 0.000000 -0.000000 0.000000 0.000000 0.000000 0.000000 0.000000 -0.000000 0.000000 0.000000 -0.000000 0.000000 0.000000 -1.517043 -6.179944 0.407444 -1.893129 -4.035465 0.693473 0.000000 0.000000 0.000000 0.000000 0.000000 0.000000 -3.147177 2.467597 -1.013870 4.057987 -3.768743 1.795313 -7.065240 -0.835126 -0.917963 23.286533 2.793808 -2.117912 0.000000 0.000000 0.000000 0.000000 0.000000 0.000000 -0.100212 0.065775 19.321232 -0.000000 0.000000 0.000000 -20.061818 21.588237 53.837415 0.000000 0.000000 0.000000 -0.100212 0.065775 19.321232 1.215192 2.534171 0.254933 38.971194 15.650853 -7.533489 0.000000 0.000000 0.000000
73.960442 80.151111 239.086289 0.069544 -0.134688 -19.411694 -0.110355 0.103918 19.411876 -0.000000 0.000000 0.000000 -0.000000 0.000000 0.000000 0.000000 0.000000 0.000000 -0.000000 0.000000 0.000000 0.136424 -0.785259 0.251994 -3.463285 -6.420734 0.107852 2.737656 -1.151555 -0.222855 0.000000 0.000000 0.000000 0.000000 0.000000 0.000000 -2.398549 1.786918 -0.711658 3.033443 -2.988314 1.348252 -8.996721 -0.425017 -1.246509 24.476247 3.722274 -2.951225 0.000000 0.000000 0.000000 0.000000 0.000000 0.000000 -0.110355 0.103918 19.411876 -0.000000 0.000000 0.000000 -21.949266 22.481607 58.104538 0.000000 0.000000 0.000000 -0.110355 0.103918 19.411876 1.239108 2.575203 0.259022 43.377769 15.437812 -4.685020 0.000000 0.000000 0.000000
73.953226 80.164871 239.109134 0.054943 -0.180374 -19.488740 -0.111972 0.151710 19.488974 -0.000000 0.000000 0.000000 -0.000000 0.000000 0.000000 0.000000 0.000000 0.000000 -0.000000 0.000000 0.000000 0.167277 -1.016317 0.325191 -5.006543 -7.092268 -0.026512 5.407166 -1.805274 -0.653547 0.000000 0.000000 0.000000 0.000000 0.000000 0.000000 -2.656693 1.761542 -0.599922 2.975899 -2.934328 1.208765 -8.142665 -1.370921 -1.024742 21.781631 4.666751 -3.394452 0.000000 0.000000 0.000000 0.000000 0.000000 0.000000 -0.111972 0.151710 19.488974 -0.000000 0.000000 0.000000 -16.095318 27.510563 58.490536 0.000000 0.000000 0.000000 -0.111972 0.151710 19.488974 1.095867 2.281882 0.232077 41.135333 13.261596 -0.470822 0.000000 0.000000 0.000000
73.940708 80.196221 239.134738 0.044079 -0.225392 -19.563064 -0.117007 0.197621 19.563353 -0.000000 0.000000 0.000000 -0.000000 0.000000 0.000000 0.000000 0.000000 0.000000 -0.000000 0.000000 0.000000 0.098552 -1.277007 0.393595 -6.088663 -7.605217 -0.138734 6.506662 -0.964056 -0.806990 0.000000 0.000000 0.000000 0.000000 0.000000 0.000000 -1.508707 0.760880 -0.149119 1.505639 -1.796071 0.607757 -9.677230 -0.729915 -1.343365 21.713661 4.503625 -3.001929 0.000000 0.000000 0.000000 0.000000 0.000000 0.000000 -0.117007 0.197621 19.563353 -0.000000 0.000000 0.000000 -10.813843 30.004685 55.675328 0.000000 0.000000 0.000000 -0.117007 0.197621 19.563353 1.072426 2.173583 0.224790 40.186136 12.191019 1.457841 0.000000 0.000000 0.000000
73.952099 80.202984 239.171209 0.072410 -0.287870 -19.551254 -0.164571 0.247040 19.551791 -0.000000 0.000000 0.000000 -0.000000 0.000000 0.000000 0.000000 0.000000 0.000000 -0.000000 0.000000 0.000000 -0.022492 -1.592644 0.470586 -6.853128 -7.614519 -0.248483 7.303180 -1.902413 -0.821808 0.000000 0.000000 0.000000 0.000000 0.000000 0.000000 0.489114 -0.760313 0.512085 -0.907464 -0.018190 -0.179203 -12.565098 0.917937 -1.935881 23.760314 3.382576 -1.876420 0.000000 0.000000 0.000000 0.000000 0.000000 0.000000 -0.164571 0.247040 19.551791 -0.000000 0.000000 0.000000 -7.218207 29.140761 50.353948 0.000000 0.000000 0.000000 -0.164571 0.247040 19.551791 0.818505 1.736239 0.178941 38.520470 10.402601 4.527308 0.000000 0.000000 0.000000
